<svg xmlns="http://www.w3.org/2000/svg"  viewBox="0 0 100 100" width="400px" height="400px"><path d="M71.499,93c-0.851,0-20.537-0.021-21.989-0.021c-1.775,0-3.492-0.735-4.709-2.018 c-2.447-2.577-2.401-6.556,0.104-9.06c0.35-0.351,0.999-0.917,2.018-1.51c-4.891-0.973-9.241-2.958-12.483-4.792l-8.445,13.371 c-1.099,1.742-2.985,2.87-5.044,3.014C20.804,91.995,20.652,92,20.5,92c-1.917,0-3.726-0.839-4.963-2.303L4.538,76.698 c-1.273-1.504-1.792-3.477-1.424-5.411c0.365-1.931,1.57-3.578,3.306-4.511c4.297-2.32,13.699-7.624,18.965-11.327 c3.531-3.331,7.429-8.257,11.55-13.466C47.684,28.397,59.866,13,75.5,13c6.491,0,10.157,4.087,13.231,6.299 c4.987,0.747,7.458,2.698,8.365,3.605c1.774,1.774,2.37,4.446,1.517,6.806c-0.847,2.337-2.975,3.998-5.438,4.255 C91.937,34.138,88,35.267,88,42.5c0,17.316-7.773,30.427-21,35.837v0.055c4.094,0.694,6.991,2.087,7.402,2.292 c3.209,1.605,4.513,5.517,2.913,8.721C76.203,91.625,73.976,93,71.499,93z" opacity=".35"/><path fill="#f2f2f2" d="M69.499,91c-0.851,0-20.537-0.021-21.989-0.021c-1.775,0-3.492-0.735-4.709-2.018 c-2.447-2.577-2.401-6.556,0.104-9.06c0.35-0.351,0.999-0.917,2.018-1.51c-4.891-0.973-9.241-2.958-12.483-4.792l-8.445,13.371 c-1.099,1.742-2.985,2.87-5.044,3.014C18.804,89.995,18.652,90,18.5,90c-1.917,0-3.726-0.839-4.963-2.303L2.538,74.698 c-1.273-1.504-1.792-3.477-1.424-5.411c0.365-1.931,1.57-3.578,3.306-4.511c4.297-2.32,13.699-7.624,18.965-11.327 c3.531-3.331,7.429-8.257,11.55-13.466C45.684,26.397,57.866,11,73.5,11c6.491,0,10.829,2.902,13.231,6.299 c4.987,0.747,7.458,2.698,8.365,3.605c1.774,1.774,2.37,4.446,1.517,6.806c-0.847,2.337-2.975,3.998-5.438,4.255 C89.937,32.138,86,33.267,86,40.5c0,17.316-7.773,30.427-21,35.837v0.055c4.094,0.694,6.991,2.087,7.402,2.292 c3.209,1.605,4.513,5.517,2.913,8.721C74.203,89.625,71.976,91,69.499,91z"/><path fill="#9aa2e6" d="M73.5,17.5c-18,0-33,29-46,41c-7,5-20,12-20,12l11,13l11.051-19.096c0,0,11.949,8.096,24.949,8.096 c16,0,25-11,25-32c0-14,11-15,11-15s-2-2-8-2C82.5,23.5,81.5,17.5,73.5,17.5z"/><path fill="#40396e" d="M80.736,22.927c0,0,1.719,3.472-0.421,7.871L86,28l5-3l-8-3L80.736,22.927z"/><path fill="#707cc0" d="M70,44.5C70,37.596,64.404,32,57.5,32c-3.668,0-6.956,1.589-9.243,4.105L48,36L29,56 c0,0,6.308,6,17.121,6C65.044,62,70,52.25,70,45l-0.025-0.01C69.982,44.826,70,44.665,70,44.5z"/><path fill="#707cc0" d="M7.5,70.5l20-12c0,0,0.829,2.728,3.736,4.725L18.5,83.5L7.5,70.5z"/><path fill="none" stroke="#40396e" stroke-linejoin="round" stroke-miterlimit="10" stroke-width="3" d="M73.5,17.5 c-18,0-33,29-46,41c-7,5-20,12-20,12l11,13l12-19c0,0,9.635,8,20.394,8c16,0,28.606-11,28.606-32c0-14,11-15,11-15s-2-2-8-2 C82.5,23.5,81.5,17.5,73.5,17.5z"/><line x1="53.5" x2="53.5" y1="72.5" y2="82.5" fill="none" stroke="#40396e" stroke-linecap="round" stroke-linejoin="round" stroke-miterlimit="10" stroke-width="3"/><path fill="none" stroke="#40396e" stroke-linecap="round" stroke-linejoin="round" stroke-miterlimit="10" stroke-width="3" d="M47.5,84.5c0,0,2-2,7.955-2c5.045,0,9.045,2,9.045,2"/><line x1="58.5" x2="58.5" y1="72.5" y2="82.5" fill="none" stroke="#40396e" stroke-linecap="round" stroke-linejoin="round" stroke-miterlimit="10" stroke-width="3"/><path fill="none" stroke="#40396e" stroke-linecap="round" stroke-linejoin="round" stroke-miterlimit="10" stroke-width="3" d="M58.333,82.592c0.644-0.059,1.349-0.092,2.122-0.092c5.045,0,9.045,2,9.045,2"/><circle cx="75" cy="26" r="2" fill="#40396e"/></svg>